# xmcd
#
# Track frame offsets:
#	150
#	14471
#	32954
#	44717
#	62876
#	76649
#	92644
#	110369
#	126984
#	140579
#	157623
#	173772
#	188495
#	205289
#	219459
#	232402
#	244212
#	256563
#	272878
#
# Disc length: 3864 seconds
#
# Revision: 1
# Processed by: cddbd v1.5.1PL2 Copyright (c) Steve Scherf et al.
# Submitted via: dBpowerAMP V4.0
#
DISCID=0b0f1613
DTITLE=Various Artist - CDX 387
DYEAR=2006
DGENRE=Country
TTITLE0=BR549 - After The Hurricane
TTITLE1=Little Big Town - Bring It On Home (Radio Edit)
TTITLE2=Eddy Arnold - Don't She look Good
TTITLE3=Keith Anderson - Every Time I Hear Your Name
TTITLE4=Toby Keith - Get Drunk and Be Somebody
TTITLE5=Con Hunley - I Can't Make It Alone
TTITLE6=Bonnie Raitt - I Don't Want Anything To Change
TTITLE7=Rodney Atkins - If You're Goin' Through Hell..
TTITLE8=Martina McBride w/Dolly Parton - I Still Miss Someone
TTITLE9=Gary Allan - Life Ain't Always Beautiful
TTITLE10=Kenny Chesney - Living In Fast Forward
TTITLE11=Grascals - Me and John and Paul
TTITLE12=Trent Willmon - On Again Tonight
TTITLE13=leland Martin w/Chalee Tennison - Same Ol' Song and Dance
TTITLE14=K. Wilder - Breakdown
TTITLE15=Peyton Rivers - Did You Come Back
TTITLE16=Holly w/James Griffin - For All We Know
TTITLE17=Kim McAbee - It's Just A Cup Of Coffee
TTITLE18=Joel Fry - Wiser Man Than Me
EXTD=
EXTT0=
EXTT1=
EXTT2=
EXTT3=
EXTT4=
EXTT5=
EXTT6=
EXTT7=
EXTT8=
EXTT9=
EXTT10=
EXTT11=
EXTT12=
EXTT13=
EXTT14=
EXTT15=
EXTT16=
EXTT17=
EXTT18=
PLAYORDER=
